# xmcd
# 
# Track frame offsets:
#     182
#     24105
#     39365
#     56792
# 
# Disc length: 986
# 
# Revision: 0
# Processed by: cddbd v1.5.2PL0 Copyright (c) Steve Scherf et al.
# Submitted via: fre:ac v1.0.17
# 
DISCID=2603d804
DTITLE=Marc Lavoine - Je n'ai plus rien à te donner
DYEAR=1989
DGENRE=Chanson française
TTITLE0=Je n'ai plus rien à te donner
TTITLE1=Je n'ai plus rien à te donner (version 45T)
TTITLE2=Je n'ai plus rien à te donner (version album)
TTITLE3=Les amours du dimanche
EXTD=Maxi cd single
EXTT0=
EXTT1=
EXTT2=
EXTT3=
PLAYORDER=
